<svg data-v-0dd9719b="" version="1.0" xmlns="http://www.w3.org/2000/svg" xmlns:xlink="http://www.w3.org/1999/xlink"
    width="100%" height="100%" viewBox="0 0 340.000000 250.000000" preserveAspectRatio="xMidYMid meet"
    color-interpolation-filters="sRGB" style="margin: auto;">
    <rect data-v-0dd9719b="" x="0" y="0" width="100%" height="100%" fill="rgba(2,14,39,0)" fill-opacity="1" class="background">
    </rect>
    <g data-v-0dd9719b="" fill="#ffffff" class="iconbordersvg"
        transform="translate(89.23999786376953,24.855636596679688)">
        <g data-gra="graph-icon-name">
            <g>
                <rect data-gra="graph-name-bg" stroke-width="2" class="i-icon-bg" x="0" y="0" width="161.52000427246094"
                    height="200.28872680664062" fill-opacity="0" stroke="rgb(255, 255, 255)"></rect>
                <!---->
                <!---->
            </g>
            <g transform="translate(0,0)">
                <g data-gra="graph-icon" transform="translate(25.76000213623047,0)"
                    mask="url(#35256fe9-5c78-4e04-b81f-46e13da23684)">
                    <g>
                        <rect data-gra="graph-name-bg" stroke-width="2" class="i-icon-bg" x="0" y="0" width="110"
                            height="151.38671875" fill-opacity="0"></rect>
                        <!---->
                        <!---->
                    </g>
                    <g transform="translate(5,5)">
                        <g class="iconsvg-imagesvg">
                            <g>
                                <!----> <svg filter="url(#colors2755030353)" x="0" y="0" width="100"
                                    height="141.38672095916752" filtersec="colorsf1797890196"
                                    class="image-svg-svg primary" style="overflow: visible;"><svg
                                        xmlns="http://www.w3.org/2000/svg"
                                        viewBox="-0.02499999999999991 0.8999899999999998 71.05 98.8">
                                        <path
                                            d="M11.8 74c-13.1-13.1-13.1-34.3 0-47.4 13.1-13.1 34.3-13.1 47.4 0 13.1 13.1 13.1 34.3 0 47.4-13.1 13-34.3 13-47.4 0zm47.4 0L35.5 97.7c-13.1-13.1-13.1-34.3 0-47.4s13.1-34.3 0-47.4L11.8 26.5"
                                            fill="none" stroke="#202121" stroke-width="4" stroke-miterlimit="10"></path>
                                    </svg></svg>
                                <defs>
                                    <filter id="colors2755030353">
                                        <feColorMatrix type="matrix"
                                            values="0 0 0 0 0.93359375  0 0 0 0 0.35546875  0 0 0 0 0.140625  0 0 0 1 0"
                                            class="icon-fecolormatrix"></feColorMatrix>
                                    </filter>
                                    <filter id="colorsf1797890196">
                                        <feColorMatrix type="matrix"
                                            values="0 0 0 0 0.99609375  0 0 0 0 0.99609375  0 0 0 0 0.99609375  0 0 0 1 0"
                                            class="icon-fecolormatrix"></feColorMatrix>
                                    </filter>
                                    <filter id="colorsb3991133042">
                                        <feColorMatrix type="matrix" values="0 0 0 0 0  0 0 0 0 0  0 0 0 0 0  0 0 0 1 0"
                                            class="icon-fecolormatrix"></feColorMatrix>
                                    </filter>
                                </defs>
                            </g>
                        </g>
                    </g>
                    <rect v-gra="id" width="122" height="163.38671875" transform="translate(-6, -6)"
                        style="pointer-events:none;" fill="url(#e_VF7CnGvqiR1SpHRSw5o)"></rect>
                </g>
                <g data-gra="graph-name" transform="translate(0,151.38671875)"
                    mask="url(#775b6e30-3848-441e-ad0e-adaff2b580a5)">
                    <g>
                        <rect data-gra="graph-name-bg" stroke-width="2" class="i-icon-bg" x="0" y="0"
                            width="161.52000427246094" height="48.902000427246094" fill-opacity="1"></rect>
                        <!---->
                        <!---->
                    </g>
                    <g transform="translate(5,5)">
                        <g data-gra="path-name" fill-rule="" class="tp-name" transform="translate(0,0)">
                            <g transform="scale(1)">
                                <g>
                                    <path
                                        d="M12.51-7.51L17.52-7.51 17.52 0 0 0 0-5.01 2.5-5.01 2.5-20.02 0-20.02 0-25.03 10.01-25.03 10.01-20.02 7.51-20.02 7.51-5.01 12.51-5.01 12.51-7.51ZM27.28-25.03L32.28-25.03Q33.82-25.03 35.2-24.44 36.57-23.85 37.59-22.83 38.61-21.81 39.2-20.43 39.79-19.06 39.79-17.52L39.79-17.52 39.79-7.51Q39.79-5.93 39.2-4.58 38.61-3.22 37.59-2.2 36.57-1.18 35.2-0.59 33.82 0 32.28 0L32.28 0 27.28 0Q25.71 0 24.35-0.59 22.99-1.18 21.97-2.2 20.95-3.22 20.36-4.58 19.77-5.93 19.77-7.51L19.77-7.51 19.77-17.52Q19.77-19.06 20.36-20.43 20.95-21.81 21.97-22.83 22.99-23.85 24.35-24.44 25.71-25.03 27.28-25.03L27.28-25.03ZM34.79-7.51L34.79-17.52Q34.79-18.56 34.05-19.29 33.32-20.02 32.28-20.02L32.28-20.02 27.28-20.02Q26.24-20.02 25.51-19.29 24.78-18.56 24.78-17.52L24.78-17.52 24.78-7.51Q24.78-6.47 25.51-5.74 26.24-5.01 27.28-5.01L27.28-5.01 32.28-5.01Q33.32-5.01 34.05-5.74 34.79-6.47 34.79-7.51L34.79-7.51ZM42.01-25.03L62.03-25.03 62.03-17.52 57.03-17.52 57.03-20.02 54.52-20.02 54.52-5.01 57.03-5.01 57.03 0 47.01 0 47.01-5.01 49.52-5.01 49.52-20.02 47.01-20.02 47.01-17.52 42.01-17.52 42.01-25.03ZM64.25-25.03L84.27-25.03 84.27-17.52 79.26-17.52 79.26-20.02 76.76-20.02 76.76-5.01 79.26-5.01 79.26 0 69.25 0 69.25-5.01 71.76-5.01 71.76-20.02 69.25-20.02 69.25-17.52 64.25-17.52 64.25-25.03ZM86.49-25.03L104-25.03 104-17.52 99-17.52 99-20.02 93.99-20.02 93.99-15.02 99-15.02 99-10.01 93.99-10.01 93.99-5.01 99-5.01 99-7.51 104-7.51 104 0 86.49 0 86.49-5.01 88.99-5.01 88.99-20.02 86.49-20.02 86.49-25.03ZM126.35-5.01L128.53-5.01 128.53 0 118.52 0 118.52-5.01 120.56-5.01 118.27-9.01 113.76-9.01 113.76-5.01 116.27-5.01 116.27 0 106.26 0 106.26-5.01 108.76-5.01 108.76-20.02 106.26-20.02 106.26-25.03 118.13-25.03Q119.77-24.99 121.2-24.35 122.63-23.7 123.7-22.63 124.78-21.56 125.4-20.11 126.03-18.66 126.03-17.02L126.03-17.02Q126.03-15.09 125.21-13.48 124.38-11.87 123.02-10.76L123.02-10.76 126.35-5.01ZM113.76-20.02L113.76-14.02 118.02-14.02Q119.27-14.02 120.15-14.89 121.02-15.77 121.02-17.02L121.02-17.02Q121.02-18.27 120.15-19.15 119.27-20.02 118.02-20.02L118.02-20.02 113.76-20.02ZM149.48-20.02L142.37-9.72 142.37-5.01 144.87-5.01 144.87 0 134.86 0 134.86-5.01 137.36-5.01 137.36-9.72 130.28-20.02 128.24-20.02 128.24-25.03 138.26-25.03 138.26-20.02 136.36-20.02 139.86-14.91 143.4-20.02 141.51-20.02 141.51-25.03 151.52-25.03 151.52-20.02 149.48-20.02Z"
                                        transform="translate(0, 25.030000686645508)"></path>
                                </g>
                                <!---->
                                <!---->
                                <!---->
                                <!---->
                                <!---->
                                <!---->
                                <!---->
                            </g>
                        </g>
                        <g data-gra="path-slogan" fill-rule="" class="tp-slogan"
                            fill="url(#15f623d2-c757-4a22-860a-e1b334809a83)"
                            transform="translate(54.485002517700195,31.030000686645508)">
                            <!---->
                            <!---->
                            <g transform="scale(1, 1)">
                                <g transform="scale(1)">
                                    <path
                                        d="M1.08-7.87L1.08 0L5.52 0L5.52-0.85L2.08-0.85L2.08-7.87ZM10.30-3.20L7.93-3.20L8.30-4.40C8.45-4.84 8.58-5.28 8.71-5.72C8.84-6.15 8.96-6.60 9.08-7.06L9.13-7.06C9.26-6.60 9.39-6.15 9.52-5.72C9.64-5.28 9.78-4.84 9.92-4.40ZM10.55-2.40L11.29 0L12.36 0L9.70-7.87L8.57-7.87L5.90 0L6.92 0L7.68-2.40ZM14.47-4.14L14.47-7.07L15.79-7.07C16.41-7.07 16.88-6.96 17.21-6.76C17.54-6.55 17.70-6.18 17.70-5.66C17.70-5.15 17.54-4.77 17.21-4.52C16.88-4.27 16.41-4.14 15.79-4.14ZM17.80 0L18.92 0L16.93-3.43C17.47-3.57 17.90-3.82 18.22-4.19C18.54-4.56 18.70-5.05 18.70-5.66C18.70-6.07 18.63-6.42 18.49-6.70C18.36-6.98 18.17-7.20 17.92-7.38C17.68-7.56 17.39-7.68 17.05-7.76C16.71-7.83 16.34-7.87 15.94-7.87L13.48-7.87L13.48 0L14.47 0L14.47-3.32L15.90-3.32ZM23.68-3.20L21.31-3.20L21.68-4.40C21.83-4.84 21.96-5.28 22.09-5.72C22.22-6.15 22.34-6.60 22.46-7.06L22.51-7.06C22.64-6.60 22.77-6.15 22.90-5.72C23.02-5.28 23.16-4.84 23.30-4.40ZM23.93-2.40L24.67 0L25.74 0L23.08-7.87L21.95-7.87L19.28 0L20.30 0L21.06-2.40ZM25.61-7.87L28.13 0L29.29 0L31.79-7.87L30.77-7.87L29.51-3.62C29.37-3.15 29.25-2.72 29.14-2.32C29.02-1.92 28.90-1.48 28.75-1.02L28.70-1.02C28.55-1.48 28.42-1.92 28.31-2.32C28.21-2.72 28.08-3.15 27.94-3.62L26.68-7.87ZM32.87-7.87L32.87 0L37.52 0L37.52-0.85L33.86-0.85L33.86-3.71L36.85-3.71L36.85-4.56L33.86-4.56L33.86-7.03L37.40-7.03L37.40-7.87ZM39.19-7.87L39.19 0L43.63 0L43.63-0.85L40.19-0.85L40.19-7.87Z"
                                        transform="translate(-1.08, 7.872)"></path>
                                </g>
                            </g>
                        </g>
                    </g>
                </g>
            </g>
        </g>
    </g>
    <mask id="775b6e30-3848-441e-ad0e-adaff2b580a5">
        <g fill="white">
            <rect data-gra="graph-name-bg" stroke-width="2" class="i-icon-bg" x="0" y="0" width="161.52000427246094"
                height="48.902000427246094" fill-opacity="1"></rect>
        </g>
        <g transform="translate(5,5)" fill="black">
            <g data-gra="path-name" fill-rule="" class="tp-name" transform="translate(0,0)">
                <g transform="scale(1)">
                    <g>
                        <path
                            d="M12.51-7.51L17.52-7.51 17.52 0 0 0 0-5.01 2.5-5.01 2.5-20.02 0-20.02 0-25.03 10.01-25.03 10.01-20.02 7.51-20.02 7.51-5.01 12.51-5.01 12.51-7.51ZM27.28-25.03L32.28-25.03Q33.82-25.03 35.2-24.44 36.57-23.85 37.59-22.83 38.61-21.81 39.2-20.43 39.79-19.06 39.79-17.52L39.79-17.52 39.79-7.51Q39.79-5.93 39.2-4.58 38.61-3.22 37.59-2.2 36.57-1.18 35.2-0.59 33.82 0 32.28 0L32.28 0 27.28 0Q25.71 0 24.35-0.59 22.99-1.18 21.97-2.2 20.95-3.22 20.36-4.58 19.77-5.93 19.77-7.51L19.77-7.51 19.77-17.52Q19.77-19.06 20.36-20.43 20.95-21.81 21.97-22.83 22.99-23.85 24.35-24.44 25.71-25.03 27.28-25.03L27.28-25.03ZM34.79-7.51L34.79-17.52Q34.79-18.56 34.05-19.29 33.32-20.02 32.28-20.02L32.28-20.02 27.28-20.02Q26.24-20.02 25.51-19.29 24.78-18.56 24.78-17.52L24.78-17.52 24.78-7.51Q24.78-6.47 25.51-5.74 26.24-5.01 27.28-5.01L27.28-5.01 32.28-5.01Q33.32-5.01 34.05-5.74 34.79-6.47 34.79-7.51L34.79-7.51ZM42.01-25.03L62.03-25.03 62.03-17.52 57.03-17.52 57.03-20.02 54.52-20.02 54.52-5.01 57.03-5.01 57.03 0 47.01 0 47.01-5.01 49.52-5.01 49.52-20.02 47.01-20.02 47.01-17.52 42.01-17.52 42.01-25.03ZM64.25-25.03L84.27-25.03 84.27-17.52 79.26-17.52 79.26-20.02 76.76-20.02 76.76-5.01 79.26-5.01 79.26 0 69.25 0 69.25-5.01 71.76-5.01 71.76-20.02 69.25-20.02 69.25-17.52 64.25-17.52 64.25-25.03ZM86.49-25.03L104-25.03 104-17.52 99-17.52 99-20.02 93.99-20.02 93.99-15.02 99-15.02 99-10.01 93.99-10.01 93.99-5.01 99-5.01 99-7.51 104-7.51 104 0 86.49 0 86.49-5.01 88.99-5.01 88.99-20.02 86.49-20.02 86.49-25.03ZM126.35-5.01L128.53-5.01 128.53 0 118.52 0 118.52-5.01 120.56-5.01 118.27-9.01 113.76-9.01 113.76-5.01 116.27-5.01 116.27 0 106.26 0 106.26-5.01 108.76-5.01 108.76-20.02 106.26-20.02 106.26-25.03 118.13-25.03Q119.77-24.99 121.2-24.35 122.63-23.7 123.7-22.63 124.78-21.56 125.4-20.11 126.03-18.66 126.03-17.02L126.03-17.02Q126.03-15.09 125.21-13.48 124.38-11.87 123.02-10.76L123.02-10.76 126.35-5.01ZM113.76-20.02L113.76-14.02 118.02-14.02Q119.27-14.02 120.15-14.89 121.02-15.77 121.02-17.02L121.02-17.02Q121.02-18.27 120.15-19.15 119.27-20.02 118.02-20.02L118.02-20.02 113.76-20.02ZM149.48-20.02L142.37-9.72 142.37-5.01 144.87-5.01 144.87 0 134.86 0 134.86-5.01 137.36-5.01 137.36-9.72 130.28-20.02 128.24-20.02 128.24-25.03 138.26-25.03 138.26-20.02 136.36-20.02 139.86-14.91 143.4-20.02 141.51-20.02 141.51-25.03 151.52-25.03 151.52-20.02 149.48-20.02Z"
                            transform="translate(0, 25.030000686645508)"></path>
                    </g>
                </g>
            </g>
            <g data-gra="path-slogan" fill-rule="" class="tp-slogan"
                transform="translate(54.485002517700195,31.030000686645508)">
                <g transform="scale(1, 1)">
                    <g transform="scale(1)">
                        <path
                            d="M1.08-7.87L1.08 0L5.52 0L5.52-0.85L2.08-0.85L2.08-7.87ZM10.30-3.20L7.93-3.20L8.30-4.40C8.45-4.84 8.58-5.28 8.71-5.72C8.84-6.15 8.96-6.60 9.08-7.06L9.13-7.06C9.26-6.60 9.39-6.15 9.52-5.72C9.64-5.28 9.78-4.84 9.92-4.40ZM10.55-2.40L11.29 0L12.36 0L9.70-7.87L8.57-7.87L5.90 0L6.92 0L7.68-2.40ZM14.47-4.14L14.47-7.07L15.79-7.07C16.41-7.07 16.88-6.96 17.21-6.76C17.54-6.55 17.70-6.18 17.70-5.66C17.70-5.15 17.54-4.77 17.21-4.52C16.88-4.27 16.41-4.14 15.79-4.14ZM17.80 0L18.92 0L16.93-3.43C17.47-3.57 17.90-3.82 18.22-4.19C18.54-4.56 18.70-5.05 18.70-5.66C18.70-6.07 18.63-6.42 18.49-6.70C18.36-6.98 18.17-7.20 17.92-7.38C17.68-7.56 17.39-7.68 17.05-7.76C16.71-7.83 16.34-7.87 15.94-7.87L13.48-7.87L13.48 0L14.47 0L14.47-3.32L15.90-3.32ZM23.68-3.20L21.31-3.20L21.68-4.40C21.83-4.84 21.96-5.28 22.09-5.72C22.22-6.15 22.34-6.60 22.46-7.06L22.51-7.06C22.64-6.60 22.77-6.15 22.90-5.72C23.02-5.28 23.16-4.84 23.30-4.40ZM23.93-2.40L24.67 0L25.74 0L23.08-7.87L21.95-7.87L19.28 0L20.30 0L21.06-2.40ZM25.61-7.87L28.13 0L29.29 0L31.79-7.87L30.77-7.87L29.51-3.62C29.37-3.15 29.25-2.72 29.14-2.32C29.02-1.92 28.90-1.48 28.75-1.02L28.70-1.02C28.55-1.48 28.42-1.92 28.31-2.32C28.21-2.72 28.08-3.15 27.94-3.62L26.68-7.87ZM32.87-7.87L32.87 0L37.52 0L37.52-0.85L33.86-0.85L33.86-3.71L36.85-3.71L36.85-4.56L33.86-4.56L33.86-7.03L37.40-7.03L37.40-7.87ZM39.19-7.87L39.19 0L43.63 0L43.63-0.85L40.19-0.85L40.19-7.87Z"
                            transform="translate(-1.08, 7.872)"></path>
                    </g>
                </g>
            </g>
        </g>
    </mask>
    <defs v-gra="od">
        <linearGradient x1="0" y1="1" x2="0" y2="0" id="15f623d2-c757-4a22-860a-e1b334809a83">
            <stop offset="0%" stop-color="#00c9ff"></stop>
            <stop offset="100%" stop-color="#92fe9d"></stop>
        </linearGradient>
        <filter id="42443b3f1de60f6b6fd3b6a9844b4764" filterUnits="objectBoundingBox">
            <feColorMatrix type="matrix" values="0 0 0 0 0.99609375  0 0 0 0 0.99609375  0 0 0 0 0.99609375  0 0 0 1 0">
            </feColorMatrix>
        </filter>
        <linearGradient x1="0" y1="1" x2="0" y2="0" id="aabd80ce-e386-4903-b76a-da0b7b8deb1d">
            <stop offset="0%" stop-color="#00c9ff"></stop>
            <stop offset="100%" stop-color="#92fe9d"></stop>
        </linearGradient>
        <filter id="42443b3f1de60f6b6fd3b6a9844b4764" filterUnits="objectBoundingBox">
            <feColorMatrix type="matrix" values="0 0 0 0 0.99609375  0 0 0 0 0.99609375  0 0 0 0 0.99609375  0 0 0 1 0">
            </feColorMatrix>
        </filter>
    </defs>
    <defs v-gra="id">
        <filter id="65b5f4d5-4ae5-41e0-b438-a57a83ed0766" filterUnits="userSpaceOnUse">
            <feColorMatrix type="matrix" values="0 0 0 0 0.99609375  0 0 0 0 0.99609375  0 0 0 0 0.99609375  0 0 0 1 0">
            </feColorMatrix>
        </filter>
        <linearGradient x1="0" y1="1" x2="0" y2="0" id="e_VF7CnGvqiR1SpHRSw5o">
            <stop offset="0%" stop-color="#00c9ff"></stop>
            <stop offset="100%" stop-color="#92fe9d"></stop>
        </linearGradient>
        <filter id="42443b3f1de60f6b6fd3b6a9844b4764" filterUnits="objectBoundingBox">
            <feColorMatrix type="matrix" values="0 0 0 0 0.99609375  0 0 0 0 0.99609375  0 0 0 0 0.99609375  0 0 0 1 0">
            </feColorMatrix>
        </filter>
    </defs>
    <mask v-gra="im" id="35256fe9-5c78-4e04-b81f-46e13da23684">
        <g data-gra="graph-icon" filter="url(#65b5f4d5-4ae5-41e0-b438-a57a83ed0766)">
            <g>
                <rect data-gra="graph-name-bg" stroke-width="2" class="i-icon-bg" x="0" y="0" width="110"
                    height="151.38671875" fill-opacity="0"></rect>
                <!---->
                <!---->
            </g>
            <g transform="translate(5,5)">
                <g class="iconsvg-imagesvg">
                    <g>
                        <!----> <svg x="0" y="0" width="100" height="141.38672095916752" filtersec="colorsf1797890196"
                            class="image-svg-svg primary" style="overflow: visible;"><svg
                                xmlns="http://www.w3.org/2000/svg"
                                viewBox="-0.02499999999999991 0.8999899999999998 71.05 98.8">
                                <path
                                    d="M11.8 74c-13.1-13.1-13.1-34.3 0-47.4 13.1-13.1 34.3-13.1 47.4 0 13.1 13.1 13.1 34.3 0 47.4-13.1 13-34.3 13-47.4 0zm47.4 0L35.5 97.7c-13.1-13.1-13.1-34.3 0-47.4s13.1-34.3 0-47.4L11.8 26.5"
                                    fill="none" stroke="#202121" stroke-width="4" stroke-miterlimit="10"></path>
                            </svg></svg>
                        <defs>
                            <filter id="colors2755030353">
                                <feColorMatrix type="matrix"
                                    values="0 0 0 0 0.93359375  0 0 0 0 0.35546875  0 0 0 0 0.140625  0 0 0 1 0"
                                    class="icon-fecolormatrix"></feColorMatrix>
                            </filter>
                            <filter id="colorsf1797890196">
                                <feColorMatrix type="matrix"
                                    values="0 0 0 0 0.99609375  0 0 0 0 0.99609375  0 0 0 0 0.99609375  0 0 0 1 0"
                                    class="icon-fecolormatrix"></feColorMatrix>
                            </filter>
                            <filter id="colorsb3991133042">
                                <feColorMatrix type="matrix" values="0 0 0 0 0  0 0 0 0 0  0 0 0 0 0  0 0 0 1 0"
                                    class="icon-fecolormatrix"></feColorMatrix>
                            </filter>
                        </defs>
                    </g>
                </g>
            </g>
        </g>
    </mask>
</svg>
